<svg width="261" height="96" viewBox="0 0 261 96" fill="none" xmlns="http://www.w3.org/2000/svg">
<path d="M0.786861 80.6798C6.76764 55.4429 27.8016 30.6296 51.7059 20.6115C60.9895 16.7209 72.9413 13.6237 81.9982 12.7616L90 12L85.4276 15.5368C78.2191 21.1126 68.206 33.0907 64.9753 40.0028C58.7856 53.2455 58.5407 65.8345 64.2335 78.1376C65.5165 80.9104 66.5663 83.3468 66.5663 83.5517C66.5663 83.7566 58.5931 83.9243 48.8481 83.9243H31.13L31.1572 79.4483C31.1722 76.9865 31.6614 72.8243 32.2442 70.199C32.8335 67.5444 32.8686 64.9712 32.3233 64.4018C31.3902 63.4274 29.3081 72.008 28.5999 79.7467L28.2722 83.3275L14.1361 83.6637L0 84L0.786861 80.6798ZM39.5302 49.9587C41.3211 46.3797 42.5737 42.7849 42.3137 41.9703C41.8224 40.4316 34.5593 52.7529 34.5593 55.1249C34.5593 58.09 36.4386 56.1368 39.5302 49.9587ZM54.7763 28.2462C53.666 27.0869 45.9904 34.9897 45.9904 37.2922C45.9904 38.4418 47.7876 37.2527 50.7925 34.1151C53.4337 31.3572 55.2264 28.7162 54.7763 28.2462ZM63.9195 22.9147C66.0701 21.5269 67.5932 20.1445 67.3042 19.8427C66.6263 19.1348 60.0729 22.6618 59.1411 24.236C58.0297 26.1138 59.6615 25.6626 63.9195 22.9147ZM81.368 13.8706C81.7146 13.4587 81.0503 13.4782 79.8916 13.9138C78.733 14.3495 76.5468 15.0304 75.0334 15.427C73.52 15.8236 72.2818 16.6342 72.2818 17.2283C72.2818 18.2731 80.0916 15.387 81.368 13.8706Z" fill="white"/>
<path d="M134.12 19.4L131.72 32.2H117V43.08H130.28L127.88 55.88H117V77H101.4V30.36L97 19.4H134.12ZM150.928 77H136.528V18.52L150.928 16.6V77ZM176.829 77.8C173.683 77.8 170.803 77.4533 168.189 76.76C165.629 76.0667 163.416 74.84 161.549 73.08C159.683 71.32 158.243 68.8933 157.229 65.8C156.216 62.7067 155.709 58.76 155.709 53.96C155.709 46.1733 157.149 40.3067 160.029 36.36C162.963 32.36 167.656 30.36 174.109 30.36C179.976 30.36 184.216 31.9867 186.829 35.24C189.496 38.44 190.829 43.2133 190.829 49.56C190.829 51.0533 190.776 52.6 190.669 54.2C190.563 55.7467 190.376 57.16 190.109 58.44H170.989C171.309 61.6933 172.216 63.88 173.709 65C175.203 66.0667 177.709 66.6 181.229 66.6C182.456 66.6 183.709 66.4933 184.989 66.28C186.323 66.0667 187.603 65.8267 188.829 65.56V76.44C186.963 76.8133 184.989 77.1333 182.909 77.4C180.883 77.6667 178.856 77.8 176.829 77.8ZM174.669 40.92C172.536 40.92 171.283 43.8 170.909 49.56H177.469C177.469 48.3867 177.416 47.1333 177.309 45.8C177.256 44.4667 177.016 43.32 176.589 42.36C176.216 41.4 175.576 40.92 174.669 40.92ZM212.028 31H220.748V41.8H212.028V61.72C212.028 63.2133 212.401 64.3067 213.148 65C213.948 65.6933 215.201 66.04 216.908 66.04C217.761 66.04 218.508 66.0133 219.148 65.96C219.788 65.8533 220.321 65.7467 220.748 65.64V76.28C219.468 76.7067 218.108 77.0533 216.668 77.32C215.281 77.64 213.868 77.8 212.428 77.8C207.521 77.8 203.815 76.76 201.308 74.68C198.855 72.5467 197.628 68.76 197.628 63.32V41.8H191.628V31H197.628V20.92H212.028V31ZM245.033 77.8C241.886 77.8 239.006 77.4533 236.393 76.76C233.833 76.0667 231.619 74.84 229.753 73.08C227.886 71.32 226.446 68.8933 225.433 65.8C224.419 62.7067 223.913 58.76 223.913 53.96C223.913 46.1733 225.353 40.3067 228.233 36.36C231.166 32.36 235.859 30.36 242.312 30.36C248.179 30.36 252.419 31.9867 255.033 35.24C257.699 38.44 259.033 43.2133 259.033 49.56C259.033 51.0533 258.979 52.6 258.873 54.2C258.766 55.7467 258.579 57.16 258.313 58.44H239.193C239.513 61.6933 240.419 63.88 241.913 65C243.406 66.0667 245.913 66.6 249.433 66.6C250.659 66.6 251.913 66.4933 253.193 66.28C254.526 66.0667 255.806 65.8267 257.033 65.56V76.44C255.166 76.8133 253.193 77.1333 251.113 77.4C249.086 77.6667 247.059 77.8 245.033 77.8ZM242.872 40.92C240.739 40.92 239.486 43.8 239.113 49.56H245.673C245.673 48.3867 245.619 47.1333 245.513 45.8C245.459 44.4667 245.219 43.32 244.793 42.36C244.419 41.4 243.779 40.92 242.872 40.92Z" fill="white"/>
</svg>
