<svg width="90" height="72" viewBox="0 0 90 72" fill="none" xmlns="http://www.w3.org/2000/svg">
<path d="M0.786861 68.6798C6.76764 43.4429 27.8016 18.6296 51.7059 8.61154C60.9895 4.72088 72.9413 1.62371 81.9982 0.761637L90 0L85.4276 3.5368C78.2191 9.11255 68.206 21.0907 64.9753 28.0028C58.7856 41.2455 58.5407 53.8345 64.2335 66.1376C65.5165 68.9104 66.5663 71.3468 66.5663 71.5517C66.5663 71.7566 58.5931 71.9243 48.8481 71.9243H31.13L31.1572 67.4483C31.1722 64.9865 31.6614 60.8243 32.2442 58.199C32.8335 55.5444 32.8686 52.9712 32.3233 52.4018C31.3902 51.4274 29.3081 60.008 28.5999 67.7467L28.2722 71.3275L14.1361 71.6637L0 72L0.786861 68.6798ZM39.5302 37.9587C41.3211 34.3797 42.5737 30.7849 42.3137 29.9703C41.8224 28.4316 34.5593 40.7529 34.5593 43.1249C34.5593 46.09 36.4386 44.1368 39.5302 37.9587ZM54.7763 16.2462C53.666 15.0869 45.9904 22.9897 45.9904 25.2922C45.9904 26.4418 47.7876 25.2527 50.7925 22.1151C53.4337 19.3572 55.2264 16.7162 54.7763 16.2462ZM63.9195 10.9147C66.0701 9.5269 67.5932 8.1445 67.3042 7.84274C66.6263 7.13485 60.0729 10.6618 59.1411 12.236C58.0297 14.1138 59.6615 13.6626 63.9195 10.9147ZM81.368 1.87058C81.7146 1.45874 81.0503 1.4782 79.8916 1.91383C78.733 2.34946 76.5468 3.03039 75.0334 3.427C73.52 3.8236 72.2818 4.6342 72.2818 5.22832C72.2818 6.2731 80.0916 3.38704 81.368 1.87058Z" fill="white"/>
</svg>
