<?xml version="1.0" encoding="UTF-8" standalone="no"?>
<!-- Created with Inkscape (http://www.inkscape.org/) -->

<svg
   version="1.1"
   id="svg288"
   width="95"
   height="95"
   viewBox="0 0 95 95"
   sodipodi:docname="curved-road-icon-for-graphic-design-logo-website-social-media-mobile-app-ui-vector 3(1).png"
   inkscape:export-filename="tractus.png"
   inkscape:export-xdpi="80.839996"
   inkscape:export-ydpi="80.839996"
   xmlns:inkscape="http://www.inkscape.org/namespaces/inkscape"
   xmlns:sodipodi="http://sodipodi.sourceforge.net/DTD/sodipodi-0.dtd"
   xmlns="http://www.w3.org/2000/svg"
   xmlns:svg="http://www.w3.org/2000/svg">
  <defs
     id="defs292" />
  <sodipodi:namedview
     id="namedview290"
     pagecolor="#ffffff"
     bordercolor="#999999"
     borderopacity="1"
     inkscape:showpageshadow="0"
     inkscape:pageopacity="0"
     inkscape:pagecheckerboard="0"
     inkscape:deskcolor="#d1d1d1"
     showgrid="false"
     inkscape:zoom="2.4842105"
     inkscape:cx="-6.8432203"
     inkscape:cy="47.701271"
     inkscape:window-width="1920"
     inkscape:window-height="1131"
     inkscape:window-x="0"
     inkscape:window-y="32"
     inkscape:window-maximized="1"
     inkscape:current-layer="g294" />
  <g
     inkscape:groupmode="layer"
     inkscape:label="Image"
     id="g294">
    <path
       style="fill:#000000;stroke-width:1.38061"
       d="M 1.0293104,91.015578 C 7.3634681,57.726503 29.640203,24.996053 54.956889,11.781613 64.789041,6.6495669 77.447005,2.5642003 87.039064,1.4270694 l 8.474542,-1.00464996 -4.8426,4.66527416 C 83.036676,12.442484 72.431948,28.242492 69.010314,37.360009 62.454923,54.827948 62.195586,71.43364 68.224722,87.662263 c 1.358826,3.657549 2.470592,6.871262 2.470592,7.141581 0,0.270321 -8.44427,0.491492 -18.765045,0.491492 H 33.165225 l 0.02888,-5.904122 c 0.01589,-3.247268 0.533915,-8.73748 1.151175,-12.200474 0.624149,-3.501632 0.661354,-6.895798 0.08382,-7.646874 -0.988285,-1.285242 -3.193381,10.033131 -3.943442,20.240956 L 30.138594,94.50812 15.167277,94.951658 0.19595737,95.395196 Z M 42.061799,50.492401 c 1.896762,-4.720926 3.223322,-9.462646 2.94791,-10.537157 -0.520236,-2.02968 -8.21254,14.222899 -8.21254,17.351752 0,3.911191 1.990379,1.334819 5.26463,-6.814595 z m 16.14689,-28.640146 c -1.17589,-1.529233 -9.30504,8.895165 -9.30504,11.932301 0,1.516312 1.903479,-0.05219 5.085909,-4.190908 2.79725,-3.637787 4.695859,-7.121415 4.219131,-7.741393 z m 9.683448,-7.032573 c 2.277651,-1.83065 3.890758,-3.654128 3.584686,-4.052172 -0.718005,-0.9337558 -7.658581,3.718503 -8.6454,5.795 -1.177111,2.476918 0.551111,1.881746 5.060714,-1.742828 z M 86.371553,2.8898451 c 0.367132,-0.543254 -0.336487,-0.5175844 -1.563594,0.05704 -1.227107,0.5746308 -3.542471,1.4728167 -5.145255,1.9959684 -1.602781,0.5231548 -2.91415,1.5923828 -2.91415,2.3760669 0,1.3781315 8.271198,-2.4287671 9.622999,-4.4290753 z"
       id="path298" />
  </g>
</svg>
